M48
; DRILL file {KiCad (5.1.0)-1} date 14/04/2019 15:36:21
; FORMAT={-:-/ absolute / inch / decimal}
; #@! TF.CreationDate,2019-04-14T15:36:21+02:00
; #@! TF.GenerationSoftware,Kicad,Pcbnew,(5.1.0)-1
; #@! TF.FileFunction,Plated,1,2,PTH
FMAT,2
INCH
T1C0.0157
T2C0.0197
T3C0.0236
T4C0.0276
T5C0.0315
T6C0.0354
T7C0.0362
T8C0.0394
T9C0.0398
T10C0.0433
T11C0.0472
T12C0.0591
T13C0.0598
T14C0.0866
T15C0.0917
T16C0.0984
T17C0.1181
T18C0.1260
T19C0.1378
%
G90
G05
T1
X1.0615Y-4.0905
X1.0625Y-4.189
X1.0715Y-5.3985
X1.0725Y-4.685
X1.0725Y-4.8865
X1.0725Y-4.9885
X1.0725Y-5.1935
X1.0725Y-5.296
X1.073Y-4.7845
X1.073Y-5.0915
X1.184Y-5.4605
X1.25Y-7.26
X1.29Y-5.543
X1.3Y-7.26
X1.35Y-7.26
X1.659Y-5.495
X1.66Y-5.543
X1.68Y-4.796
X1.68Y-5.34
X1.8Y-3.2
X1.8Y-3.25
X1.8Y-3.3
X1.8Y-3.35
X1.8Y-3.4
X1.8Y-3.45
X1.8Y-3.5
X1.8Y-3.55
X1.8Y-3.6
X1.8Y-3.65
X1.8Y-3.7
X1.8Y-3.75
X1.816Y-4.768
X1.85Y-3.2
X1.85Y-3.25
X1.85Y-3.3
X1.85Y-3.35
X1.85Y-3.4
X1.85Y-3.45
X1.85Y-3.5
X1.85Y-3.55
X1.85Y-3.6
X1.85Y-3.65
X1.85Y-3.7
X1.85Y-3.75
X1.9Y-3.2
X1.9Y-3.25
X1.9Y-3.3
X1.9Y-3.35
X1.9Y-3.4
X1.9Y-3.45
X1.9Y-3.5
X1.9Y-3.55
X1.9Y-3.6
X1.9Y-3.65
X1.9Y-3.7
X1.9Y-3.75
X1.938Y-5.342
X1.95Y-3.2
X1.95Y-3.25
X1.95Y-3.3
X1.95Y-3.35
X1.95Y-3.4
X1.95Y-3.45
X1.95Y-3.5
X1.95Y-3.55
X1.95Y-3.6
X1.95Y-3.65
X1.95Y-3.65
X1.95Y-3.7
X1.95Y-3.75
X2.0Y-3.2
X2.0Y-3.25
X2.0Y-3.3
X2.0Y-3.35
X2.0Y-3.4
X2.0Y-3.45
X2.0Y-3.5
X2.0Y-3.55
X2.0Y-3.6
X2.0Y-3.65
X2.0Y-3.7
X2.0Y-3.75
X2.038Y-5.503
X2.0438Y-4.8168
X2.046Y-4.767
X2.05Y-3.2
X2.05Y-3.25
X2.05Y-3.3
X2.05Y-3.35
X2.05Y-3.4
X2.05Y-3.45
X2.05Y-3.5
X2.05Y-3.55
X2.05Y-3.6
X2.05Y-3.65
X2.05Y-3.65
X2.05Y-3.7
X2.05Y-3.75
X2.0716Y-5.457
X2.091Y-4.481
X2.0931Y-4.4396
X2.1Y-3.2
X2.1Y-3.25
X2.1Y-3.25
X2.1Y-3.3
X2.1Y-3.35
X2.1Y-3.4
X2.1Y-3.45
X2.1Y-3.5
X2.1Y-3.55
X2.1Y-3.6
X2.1Y-3.65
X2.1Y-3.7
X2.1Y-3.75
X2.131Y-5.046
X2.15Y-3.2
X2.15Y-3.25
X2.15Y-3.3
X2.15Y-3.35
X2.15Y-3.4
X2.15Y-3.6
X2.15Y-3.65
X2.15Y-3.7
X2.15Y-3.75
X2.2Y-3.2
X2.2Y-3.25
X2.2Y-3.3
X2.2Y-3.35
X2.2Y-3.6
X2.2Y-3.65
X2.2Y-3.7
X2.2Y-3.75
X2.207Y-5.204
X2.24Y-6.685
X2.25Y-3.2
X2.25Y-3.25
X2.25Y-3.3
X2.25Y-3.35
X2.25Y-3.4
X2.25Y-3.6
X2.25Y-3.65
X2.25Y-3.7
X2.25Y-3.75
X2.28Y-6.685
X2.3Y-3.2
X2.3Y-3.25
X2.3Y-3.3
X2.3Y-3.35
X2.3Y-3.4
X2.3Y-3.45
X2.3Y-3.5
X2.3Y-3.55
X2.3Y-3.6
X2.3Y-3.6
X2.3Y-3.65
X2.3Y-3.7
X2.3Y-3.75
X2.325Y-6.685
X2.34Y-5.1596
X2.35Y-3.2
X2.35Y-3.25
X2.35Y-3.3
X2.35Y-3.35
X2.35Y-3.4
X2.35Y-3.45
X2.35Y-3.5
X2.35Y-3.55
X2.35Y-3.6
X2.35Y-3.65
X2.35Y-3.7
X2.35Y-3.75
X2.365Y-6.685
X2.383Y-5.126
X2.4Y-3.2
X2.4Y-3.25
X2.4Y-3.3
X2.4Y-3.35
X2.4Y-3.4
X2.4Y-3.45
X2.4Y-3.5
X2.4Y-3.55
X2.4Y-3.6
X2.4Y-3.65
X2.4Y-3.7
X2.4Y-3.75
X2.4Y-6.46
X2.44Y-5.0
X2.44Y-5.04
X2.44Y-6.46
X2.465Y-5.186
X2.48Y-6.46
X2.52Y-6.46
X2.55Y-4.59
X2.55Y-4.63
X2.55Y-4.67
X2.55Y-4.71
X2.55Y-4.75
X2.56Y-6.46
X2.566Y-4.286
X2.7Y-6.46
X2.72Y-5.215
X2.72Y-5.255
X2.7285Y-6.825
X2.7315Y-6.6865
X2.732Y-6.634
X2.753Y-6.31
X2.76Y-5.215
X2.76Y-5.255
X2.7975Y-6.2405
X2.8Y-5.215
X2.8Y-5.255
X2.84Y-5.255
X2.84Y-6.468
X2.841Y-5.215
X2.87Y-5.9
X2.888Y-6.468
X2.929Y-5.309
X2.943Y-4.949
X2.995Y-4.71
X3.08Y-5.57
X3.105Y-5.255
X3.106Y-5.214
X3.12Y-5.57
X3.1309Y-4.2003
X3.15Y-5.173
X3.15Y-5.214
X3.16Y-5.57
X3.1654Y-4.9252
X3.185Y-4.6496
X3.1881Y-4.0166
X3.2Y-5.57
X3.24Y-5.57
X3.268Y-5.343
X3.2756Y-4.9252
X3.317Y-4.682
X3.3307Y-4.9764
X3.336Y-5.828
X3.351Y-4.726
X3.378Y-4.9252
X3.5Y-5.3071
X3.5Y-5.3465
X3.5394Y-4.9567
X3.5394Y-5.3071
X3.626Y-5.0433
X3.642Y-6.818
X3.65Y-2.98
X3.65Y-3.02
X3.69Y-2.98
X3.69Y-3.02
X3.69Y-3.625
X3.69Y-3.67
X3.69Y-3.715
X3.69Y-3.76
X3.694Y-6.818
X3.694Y-6.994
X3.7008Y-5.3465
X3.7087Y-4.9528
X3.7244Y-5.2717
X3.73Y-2.98
X3.73Y-3.02
X3.746Y-6.778
X3.77Y-2.98
X3.77Y-3.02
X3.7756Y-4.9528
X3.7795Y-5.189
X3.7935Y-5.0835
X3.802Y-6.8
X3.81Y-2.98
X3.81Y-3.02
X3.81Y-3.06
X3.81Y-3.1
X3.81Y-3.14
X3.81Y-3.18
X3.8386Y-5.2638
X3.846Y-6.832
X3.8465Y-4.9528
X3.85Y-2.98
X3.85Y-3.02
X3.85Y-3.06
X3.85Y-3.1
X3.85Y-3.14
X3.86Y-7.08
X3.9Y-7.08
X3.915Y-3.58
X3.915Y-3.625
X3.915Y-3.67
X3.934Y-4.13
X3.937Y-5.0315
X3.94Y-7.08
X3.942Y-6.604
X3.9595Y-4.7445
X3.96Y-3.58
X3.96Y-3.625
X3.96Y-3.67
X3.968Y-6.8285
X3.98Y-7.08
X3.9803Y-5.0315
X4.0Y-4.6985
X4.0276Y-5.0315
X4.04Y-7.22
X4.042Y-6.11
X4.042Y-6.154
X4.0685Y-6.437
X4.0695Y-6.3585
X4.0695Y-6.3975
X4.07Y-6.322
X4.08Y-7.22
X4.09Y-6.815
X4.09Y-6.8505
X4.09Y-6.886
X4.094Y-6.94
X4.166Y-6.334
X4.185Y-4.525
X4.185Y-4.565
X4.185Y-4.605
X4.185Y-4.645
X4.185Y-4.685
X4.185Y-4.725
X4.185Y-4.765
X4.185Y-4.91
X4.185Y-4.95
X4.185Y-4.99
X4.185Y-5.03
X4.194Y-5.123
X4.228Y-6.186
X4.2354Y-5.3871
X4.236Y-5.167
X4.2362Y-5.4646
X4.2362Y-5.5197
X4.2362Y-5.5748
X4.2362Y-5.6299
X4.2362Y-5.685
X4.262Y-6.152
X4.302Y-6.118
X4.322Y-7.146
X4.38Y-4.84
X4.42Y-4.84
X4.4245Y-6.5265
X4.434Y-6.174
X4.44Y-6.94
X4.46Y-4.84
X4.4635Y-6.5255
X4.47Y-6.6345
X4.4735Y-6.174
X4.476Y-6.78
X4.478Y-7.236
X4.48Y-4.74
X4.5Y-4.84
X4.507Y-6.526
X4.52Y-4.7
X4.52Y-4.74
X4.566Y-6.258
X4.568Y-5.224
X4.5875Y-6.782
X4.588Y-6.893
X4.59Y-5.064
X4.625Y-3.13
X4.625Y-3.175
X4.63Y-2.99
X4.66Y-5.124
X4.664Y-6.004
X4.665Y-3.13
X4.665Y-3.175
X4.666Y-6.062
X4.666Y-6.126
X4.675Y-2.99
X4.6811Y-2.8661
X4.7283Y-2.8661
X4.74Y-6.6773
X4.756Y-6.85
X4.785Y-2.99
X4.8071Y-3.1417
X4.825Y-2.99
X4.836Y-5.1576
X4.875Y-4.61
X4.878Y-2.7874
X4.88Y-5.04
X4.906Y-6.624
X4.906Y-6.938
X4.915Y-4.61
X4.92Y-5.04
X4.951Y-6.903
X4.955Y-4.61
X4.959Y-7.435
X4.96Y-5.04
X4.995Y-4.61
X5.0Y-5.04
X5.012Y-6.18
X5.024Y-3.914
X5.024Y-4.01
X5.035Y-4.61
X5.05Y-6.179
X5.06Y-7.074
X5.075Y-4.61
X5.115Y-4.61
X5.146Y-6.056
X5.18Y-5.42
X5.18Y-5.46
X5.18Y-5.5
X5.244Y-6.056
X5.311Y-4.7598
X5.311Y-4.815
X5.311Y-4.8701
X5.311Y-4.9252
X5.324Y-6.175
X5.324Y-6.78
X5.326Y-6.334
X5.326Y-7.236
X5.355Y-7.4
X5.365Y-3.29
X5.365Y-3.33
X5.365Y-3.37
X5.365Y-3.41
X5.365Y-3.45
X5.365Y-3.49
X5.365Y-3.53
X5.365Y-3.575
X5.365Y-3.62
X5.3943Y-5.1435
T2
X4.6535Y-4.7913
X4.6812Y-4.7245
X4.6812Y-4.8582
X4.748Y-4.6969
X4.748Y-4.8858
X4.8148Y-4.7245
X4.8148Y-4.8582
X4.8425Y-4.7913
X4.6555Y-7.32
X4.6832Y-7.2532
X4.6832Y-7.3868
X4.75Y-7.2255
X4.75Y-7.4145
X4.8168Y-7.2532
X4.8168Y-7.3868
X4.8445Y-7.32
X0.8504Y-2.6523
X0.8781Y-2.5855
X0.8781Y-2.7191
X0.9449Y-2.5578
X0.9449Y-2.7468
X1.0117Y-2.5855
X1.0117Y-2.7191
X1.0394Y-2.6523
X0.8504Y-7.3229
X0.8781Y-7.256
X0.8781Y-7.3897
X0.9449Y-7.2284
X0.9449Y-7.4174
X1.0117Y-7.256
X1.0117Y-7.3897
X1.0394Y-7.3229
X0.8505Y-4.435
X0.8782Y-4.3682
X0.8782Y-4.5018
X0.945Y-4.3405
X0.945Y-4.5295
X1.0118Y-4.3682
X1.0118Y-4.5018
X1.0395Y-4.435
X5.1995Y-2.654
X5.2272Y-2.5872
X5.2272Y-2.7208
X5.294Y-2.5595
X5.294Y-2.7485
X5.3608Y-2.5872
X5.3608Y-2.7208
X5.3885Y-2.654
T3
X2.476Y-2.938
X3.108Y-3.256
X5.012Y-5.372
T4
X3.301Y-6.407
X5.002Y-6.122
X5.11Y-6.526
T5
X2.1265Y-4.8422
X2.1265Y-5.4422
X2.2265Y-4.8422
X2.2265Y-5.4422
X2.3265Y-4.8422
X2.3265Y-5.4422
X2.4265Y-4.8422
X2.4265Y-5.4422
X2.5265Y-4.8422
X2.5265Y-5.4422
X2.6265Y-4.8422
X2.6265Y-5.4422
X2.7265Y-4.8422
X2.7265Y-5.4422
X2.8265Y-4.8422
X2.8265Y-5.4422
X2.9265Y-4.8422
X2.9265Y-5.4422
X3.0265Y-4.8422
X3.0265Y-5.4422
X3.1265Y-4.8422
X3.1265Y-5.4422
X3.2265Y-4.8422
X3.2265Y-5.4422
X3.3265Y-4.8422
X3.3265Y-5.4422
X3.4265Y-4.8422
X3.4265Y-5.4422
X3.5265Y-4.8422
X3.5265Y-5.4422
X3.6265Y-4.8422
X3.6265Y-5.4422
X3.7265Y-4.8422
X3.7265Y-5.4422
X3.8265Y-4.8422
X3.8265Y-5.4422
X3.9265Y-4.8422
X3.9265Y-5.4422
X4.0265Y-4.8422
X4.0265Y-5.4422
X4.4926Y-4.1952
X4.4926Y-4.4952
X4.5926Y-4.1952
X4.5926Y-4.4952
X4.6926Y-4.1952
X4.6926Y-4.4952
X4.7926Y-4.1952
X4.7926Y-4.4952
T6
X0.8801Y-6.75
X0.8801Y-6.8484
X0.8801Y-6.9469
X1.01Y-6.75
X1.01Y-6.8484
X1.01Y-6.9469
T7
X4.0922Y-2.7761
X4.0922Y-2.8549
X4.1906Y-2.7761
X4.1906Y-2.8549
T8
X4.3283Y-4.2494
X4.3283Y-4.3494
X4.3283Y-4.4494
X2.8711Y-4.5807
X2.9711Y-4.5807
X3.0711Y-4.5807
X3.1711Y-4.5807
X3.2711Y-4.5807
X3.3711Y-4.5807
X3.5903Y-3.1265
X3.5903Y-3.2265
X3.5903Y-3.3265
X3.5903Y-3.4265
X3.5903Y-3.5265
X2.6535Y-4.5811
X2.6535Y-4.6811
X1.2323Y-5.7047
X1.3323Y-5.7047
X1.4323Y-5.7047
X2.4262Y-4.0508
X2.4262Y-4.1508
X2.4262Y-4.2508
X2.4262Y-4.3508
X0.8758Y-5.9211
X0.9758Y-5.7211
X1.0758Y-5.9211
X1.6472Y-5.7055
X1.7472Y-5.7055
X1.8472Y-5.7055
X4.91Y-3.245
X4.91Y-3.345
X4.91Y-3.445
X4.91Y-3.545
X2.1258Y-4.0508
X2.1258Y-4.1508
X2.1258Y-4.2508
X2.1258Y-4.3508
X4.3531Y-4.924
X4.3531Y-5.024
X4.3531Y-5.124
X4.3531Y-5.224
X4.3531Y-5.324
X5.1781Y-4.924
X5.1781Y-5.024
X5.1781Y-5.124
X5.1781Y-5.224
X5.1781Y-5.324
X2.2258Y-4.0508
X2.2258Y-4.1508
X2.2258Y-4.2508
X2.2258Y-4.3508
X3.9261Y-4.4768
X3.9261Y-4.5768
X5.125Y-3.2362
X5.125Y-3.3453
X5.125Y-3.4543
X5.125Y-3.5634
X5.125Y-3.6724
X5.2369Y-3.2907
X5.2369Y-3.3998
X5.2369Y-3.5089
X5.2369Y-3.6179
X1.5117Y-4.305
X1.8109Y-4.305
X1.3448Y-4.6944
X1.3448Y-4.7944
X1.3448Y-4.8944
X1.3448Y-4.9944
X1.3448Y-5.0944
X1.3448Y-5.1944
X1.3448Y-5.2944
X1.3448Y-5.3944
X1.4448Y-4.6944
X1.4448Y-4.7944
X1.4448Y-4.8944
X1.4448Y-4.9944
X1.4448Y-5.0944
X1.4448Y-5.1944
X1.4448Y-5.2944
X1.4448Y-5.3944
X2.3609Y-2.672
X2.4609Y-2.672
X2.5609Y-2.672
X4.46Y-3.9098
X4.46Y-4.0098
X4.56Y-3.9098
X4.56Y-4.0098
X3.6273Y-5.7061
X3.7273Y-5.7061
X3.8273Y-5.7061
X3.9273Y-5.7061
X4.0273Y-5.7061
X2.3258Y-4.0508
X2.3258Y-4.1508
X2.3258Y-4.2508
X2.3258Y-4.3508
X3.6261Y-4.5768
X3.7261Y-4.5768
X3.69Y-3.1265
X3.69Y-3.2265
X3.69Y-3.3265
X3.69Y-3.4265
X3.69Y-3.5265
X4.215Y-5.8
X4.215Y-5.9
X4.315Y-5.8
X4.315Y-5.9
X4.415Y-5.8
X4.415Y-5.9
X4.515Y-5.8
X4.515Y-5.9
X4.615Y-5.8
X4.615Y-5.9
X4.715Y-5.8
X4.715Y-5.9
X4.815Y-5.8
X4.815Y-5.9
X4.915Y-5.8
X4.915Y-5.9
X3.8261Y-4.4768
X3.8261Y-4.5768
X2.13Y-4.58
X2.13Y-4.68
X2.23Y-4.58
X2.23Y-4.68
X2.725Y-5.7064
X2.725Y-5.8064
X2.825Y-5.7064
X2.825Y-5.8064
X2.925Y-5.7064
X2.925Y-5.8064
X3.025Y-5.7064
X3.025Y-5.8064
X4.0669Y-3.6233
X4.1654Y-3.6233
X4.2638Y-3.6233
X1.1845Y-6.4525
T9
X2.6102Y-3.374
X2.811Y-3.4488
T10
X1.545Y-3.385
X1.545Y-3.485
X1.545Y-3.585
T11
X1.1614Y-6.1024
X1.2614Y-6.1024
X1.3614Y-6.1024
X1.4614Y-6.1024
X1.5614Y-6.1024
X1.6614Y-6.1024
X1.7614Y-6.1024
X1.8614Y-6.1024
X1.9614Y-6.1024
X2.0614Y-6.1024
X2.1614Y-6.1024
X2.2614Y-6.1024
X2.3614Y-6.1024
X2.4614Y-6.1024
X2.5614Y-6.1024
X2.6614Y-6.1024
T12
X2.8441Y-2.5433
X2.9268Y-2.937
X3.1Y-2.937
X3.2732Y-2.937
X3.3559Y-2.5433
T13
X1.8472Y-2.672
X2.0472Y-2.672
T14
X3.9921Y-3.3477
X4.3386Y-3.3477
T15
X3.9044Y-2.6694
X4.3784Y-2.6694
T16
X0.9449Y-6.1024
X3.8976Y-7.3229
X3.8976Y-6.1024
T17
X4.3681Y-5.534
X5.1631Y-4.739
T18
X4.748Y-4.7913
X0.945Y-4.435
X5.294Y-2.654
X5.1809Y-2.9622
X5.1809Y-3.9465
X4.75Y-7.32
X0.9449Y-2.6523
X0.9449Y-7.3229
T19
X2.2009Y-3.485
T8
G00X1.252Y-2.6444
M15
G01X1.252Y-2.7231
M16
G05
G00X1.4764Y-2.5657
M15
G01X1.3976Y-2.5657
M16
G05
G00X1.4764Y-2.8019
M15
G01X1.3976Y-2.8019
M16
G05
T0
M30
